<svg height="512pt" viewBox="-35 0 512 512.00002" width="512pt" xmlns="http://www.w3.org/2000/svg"><g fill="#f4cd1e"><path d="m220.691406 0 12.683594 18.097656 22.625 5.507813-14.785156 16.691406 1.296875 21.496094-21.820313-7.777344-21.824218 7.777344 1.296874-21.496094-14.785156-16.691406 22.625-5.507813zm0 0"/><path d="m406.070312 141.242188 12.683594 18.097656 22.625 5.507812-14.785156 16.691406 1.296875 21.496094-21.820313-7.777344-21.824218 7.777344 1.296875-21.496094-14.785157-16.691406 22.625-5.507812zm0 0"/><path d="m35.308594 141.242188-12.683594 18.097656-22.625 5.507812 14.785156 16.691406-1.296875 21.496094 21.820313-7.777344 21.824218 7.777344-1.296874-21.496094 14.785156-16.691406-22.625-5.507812zm0 0"/></g><path d="m150.070312 440.761719v.617187c0 2.949219-.175781 5.898438-.53125 8.828125-2.148437 17.09375-10.503906 32.804688-23.480468 44.136719-3.070313 2.800781-6.410156 5.285156-9.976563 7.417969-1.851562 1.058593-3.617187 2.027343-5.5625 3-1.863281.929687-3.777343 1.753906-5.734375 2.472656-1.957031.808594-3.960937 1.484375-6.003906 2.027344-2.054688.636719-4.148438 1.136719-6.269531 1.503906-2.125.429687-4.277344.722656-6.441407.882813-4.402343.46875-8.839843.46875-13.242187 0-2.164063-.160157-4.316406-.453126-6.445313-.882813-2.117187-.367187-4.210937-.867187-6.265624-1.503906-2.042969-.542969-4.050782-1.21875-6.003907-2.027344-1.957031-.71875-3.871093-1.542969-5.738281-2.472656-1.941406-.972657-3.707031-1.941407-5.5625-3-3.5625-2.132813-6.90625-4.617188-9.972656-7.417969-12.976563-11.332031-21.335938-27.042969-23.484375-44.136719-.703125-5.863281-.703125-11.792969 0-17.65625 2.148437-17.09375 10.507812-32.804687 23.484375-44.136719 3.066406-2.800781 6.410156-5.28125 9.972656-7.414062 1.855469-1.0625 3.621094-2.03125 5.5625-3.003906 1.867188-.929688 3.78125-1.753906 5.738281-2.46875 1.953125-.808594 3.960938-1.488282 6.003907-2.03125 2.054687-.636719 4.148437-1.136719 6.265624-1.5 2.128907-.429688 4.28125-.726563 6.445313-.882813 4.402344-.472656 8.839844-.472656 13.242187 0 2.164063.15625 4.316407.453125 6.441407.882813 2.121093.363281 4.214843.863281 6.269531 1.5 2.042969.542968 4.046875 1.222656 6.003906 2.03125 1.957032.714844 3.871094 1.539062 5.734375 2.46875 1.945313.972656 3.710938 1.941406 5.5625 3.003906 3.566407 2.132812 6.90625 4.613281 9.976563 7.414062 12.976562 11.332032 21.332031 27.042969 23.480468 44.136719.351563 2.722657.53125 5.464844.53125 8.210938zm0 0" fill="#a773b4"/><path d="m126.050781 494.34375c0-9.75-20.867187-17.652344-46.601562-17.652344-25.738281 0-46.601563 7.902344-46.601563 17.652344s20.863282 17.65625 46.601563 17.65625c25.734375 0 46.601562-7.90625 46.601562-17.65625zm0 0" fill="#ebeced"/><path d="m126.050781 388.414062c0-9.75-20.867187-17.65625-46.601562-17.65625-25.738281 0-46.601563 7.90625-46.601563 17.65625s20.863282 17.65625 46.601563 17.65625c25.734375 0 46.601562-7.90625 46.601562-17.65625zm0 0" fill="#ebeced"/><path d="m150.070312 450.207031h-17.65625c-4.875 0-8.828124-3.953125-8.828124-8.828125s3.953124-8.828125 8.828124-8.828125h17.65625c4.875 0 8.828126 3.953125 8.828126 8.828125s-3.953126 8.828125-8.828126 8.828125zm0 0" fill="#9c63ad"/><path d="m35.308594 441.378906c0 4.875-3.949219 8.828125-8.824219 8.828125h-17.128906c-.703125-5.863281-.703125-11.792969 0-17.65625h17.128906c4.875 0 8.824219 3.953125 8.824219 8.828125zm0 0" fill="#9c63ad"/><path d="m432.550781 441.378906c.003907 2.949219-.171875 5.898438-.527343 8.828125-2.148438 17.09375-10.507813 32.804688-23.484376 44.136719-3.066406 2.800781-6.410156 5.285156-9.972656 7.417969-1.855468 1.058593-3.621094 2.027343-5.5625 3-1.863281.929687-3.78125 1.753906-5.738281 2.472656-1.953125.808594-3.957031 1.484375-6.003906 2.027344-2.054688.636719-4.144531 1.136719-6.265625 1.503906-2.128906.429687-4.28125.722656-6.445313.882813-4.398437.46875-8.839843.46875-13.242187 0-2.164063-.160157-4.316406-.453126-6.441406-.882813-2.121094-.367187-4.214844-.867187-6.269532-1.503906-2.042968-.542969-4.046875-1.21875-6-2.027344-1.957031-.71875-3.875-1.542969-5.738281-2.472656-1.945313-.972657-3.710937-1.941407-5.5625-3-3.566406-2.132813-6.90625-4.617188-9.976563-7.417969-12.976562-11.332031-21.332031-27.042969-23.480468-44.136719-.707032-5.863281-.707032-11.792969 0-17.65625 2.148437-17.09375 10.503906-32.804687 23.480468-44.136719 1.5-1.324218 3.089844-2.648437 4.769532-3.882812 1.675781-1.238281 3.441406-2.386719 5.207031-3.53125 1.765625-1.148438 3.617187-2.03125 5.5625-3.003906 1.863281-.929688 3.78125-1.753906 5.738281-2.46875 1.953125-.808594 3.957032-1.488282 6-2.03125 2.003906-.605469 4.039063-1.105469 6.09375-1.5h.175782c2.125-.429688 4.277343-.726563 6.441406-.882813 4.402344-.472656 8.84375-.472656 13.242187 0 2.164063.15625 4.316407.453125 6.445313.882813 2.121094.363281 4.210937.863281 6.265625 1.5 2.046875.542968 4.050781 1.222656 6.003906 2.03125 1.957031.714844 3.875 1.539062 5.738281 2.46875 1.941406.972656 3.707032 1.941406 5.5625 3.003906 3.5625 2.132812 6.90625 4.613281 9.972656 7.414062 12.976563 11.332032 21.335938 27.042969 23.484376 44.136719.355468 2.929688.53125 5.878907.527343 8.828125zm0 0" fill="#f4cd1e"/><path d="m408.53125 494.34375c0-9.75-20.863281-17.652344-46.601562-17.652344-25.734376 0-46.597657 7.902344-46.597657 17.652344s20.863281 17.65625 46.597657 17.65625c25.738281 0 46.601562-7.90625 46.601562-17.65625zm0 0" fill="#ebeced"/><path d="m408.53125 388.414062c0-9.75-20.863281-17.65625-46.601562-17.65625-25.734376 0-46.597657 7.90625-46.597657 17.65625s20.863281 17.65625 46.597657 17.65625c25.738281 0 46.601562-7.90625 46.601562-17.65625zm0 0" fill="#ebeced"/><path d="m432.550781 441.378906c.003907 2.949219-.171875 5.898438-.527343 8.828125h-17.125c-4.878907 0-8.828126-3.953125-8.828126-8.828125s3.949219-8.828125 8.828126-8.828125h17.125c.355468 2.929688.53125 5.878907.527343 8.828125zm0 0" fill="#f6ab27"/><path d="m308.964844 450.207031h-17.65625c-4.875 0-8.824219-3.953125-8.824219-8.828125s3.949219-8.828125 8.824219-8.828125h17.65625c4.875 0 8.828125 3.953125 8.828125 8.828125s-3.953125 8.828125-8.828125 8.828125zm0 0" fill="#f6ab27"/><path d="m361.929688 300.136719c.003906 2.953125-.171876 5.898437-.527344 8.828125-2.148438 17.097656-10.503906 32.804687-23.480469 44.136718-3.070313 2.800782-6.414063 5.285157-9.976563 7.417969-1.855468 1.058594-3.621093 2.03125-5.5625 3-1.863281.929688-3.78125 1.753907-5.738281 2.472657-1.921875.808593-3.898437 1.484374-5.914062 2.03125h-.085938c-1.992187.644531-4.027343 1.144531-6.09375 1.5h-.175781c-2.128906.429687-4.28125.722656-6.445312.882812-1.492188.175781-2.996094.265625-4.5.265625-.703126.070313-1.410157.101563-2.121094.085937-.824219.015626-1.648438-.015624-2.46875-.085937-1.386719 0-2.773438-.085937-4.148438-.265625h-.355468c-2.117188-.175781-4.148438-.53125-6.089844-.882812h-.175782c-2.054687-.398438-4.089843-.898438-6.09375-1.5-2.042968-.546876-4.046874-1.222657-6-2.03125-1.957031-.71875-3.875-1.542969-5.738281-2.472657-1.941406-.96875-3.707031-1.941406-5.5625-3-1.855469-1.058593-3.53125-2.296875-5.207031-3.53125-1.679688-1.238281-3.265625-2.5625-4.769531-3.886719-12.976563-11.332031-21.332031-27.039062-23.480469-44.136718-.707031-5.863282-.707031-11.789063 0-17.65625 2.148438-17.09375 10.503906-32.800782 23.480469-44.136719 1.503906-1.324219 3.089843-2.648437 4.769531-3.882813 1.675781-1.238281 3.441406-2.382812 5.207031-3.53125 1.765625-1.148437 3.621094-2.03125 5.5625-3 1.863281-.933593 3.78125-1.757812 5.738281-2.472656 1.921876-.808594 3.898438-1.488281 5.914063-2.03125h.085937c2.054688-.636718 4.148438-1.136718 6.269532-1.5 2.125-.429687 4.277344-.726562 6.445312-.882812 4.398438-.472656 8.839844-.472656 13.238282 0 2.164062.15625 4.316406.453125 6.445312.882812 2.121094.363282 4.214844.863282 6.269531 1.5 2.042969.542969 4.046875 1.222656 6 2.03125 1.957031.714844 3.875 1.539063 5.738281 2.472656 1.941407.96875 3.707032 1.941407 5.5625 3 3.5625 2.132813 6.90625 4.617188 9.976563 7.414063 12.976563 11.335937 21.332031 27.042969 23.480469 44.136719.355468 2.929687.53125 5.878906.527344 8.828125zm0 0" fill="#5496ce"/><path d="m337.910156 353.101562c0-9.75-20.863281-17.652343-46.601562-17.652343-25.734375 0-46.597656 7.902343-46.597656 17.652343 0 9.753907 20.863281 17.65625 46.597656 17.65625 25.738281 0 46.601562-7.902343 46.601562-17.65625zm0 0" fill="#ebeced"/><path d="m337.910156 247.171875c0-9.75-20.863281-17.65625-46.601562-17.65625-25.734375 0-46.597656 7.90625-46.597656 17.65625s20.863281 17.65625 46.597656 17.65625c25.738281 0 46.601562-7.90625 46.601562-17.65625zm0 0" fill="#ebeced"/><path d="m361.929688 300.136719c.003906 2.953125-.171876 5.898437-.527344 8.828125h-17.125c-4.875 0-8.828125-3.953125-8.828125-8.828125s3.953125-8.828125 8.828125-8.828125h17.125c.355468 2.929687.53125 5.878906.527344 8.828125zm0 0" fill="#336a93"/><path d="m238.34375 308.964844h-17.652344c-4.878906 0-8.828125-3.953125-8.828125-8.828125s3.949219-8.828125 8.828125-8.828125h17.652344c4.875 0 8.828125 3.953125 8.828125 8.828125s-3.953125 8.828125-8.828125 8.828125zm0 0" fill="#336a93"/><path d="m288.839844 158.898438c0 2.949218-.175782 5.898437-.53125 8.824218-2.148438 17.097656-10.503906 32.804688-23.480469 44.140625-3.070313 2.796875-6.410156 5.28125-9.976563 7.414063-1.851562 1.058594-3.617187 2.03125-5.558593 3-1.867188.929687-3.78125 1.757812-5.738281 2.472656-1.957032.808594-3.960938 1.488281-6.003907 2.03125-2.054687.632812-4.148437 1.136719-6.269531 1.5-2.125.429688-4.277344.726562-6.441406.882812-4.402344.472657-8.839844.472657-13.242188 0-2.164062-.15625-4.316406-.453124-6.445312-.882812h-.175782c-.972656-.175781-2.03125-.441406-3-.707031-1.050781-.179688-2.085937-.445313-3.089843-.792969-2.042969-.542969-4.050781-1.222656-6.003907-2.03125-1.941406-.707031-3.882812-1.589844-5.738281-2.472656-1.851562-.882813-3.796875-2.027344-5.5625-3-1.765625-1.148438-3.441406-2.296875-5.117187-3.53125-1.679688-1.234375-3.269532-2.472656-4.855469-3.882813-12.976563-11.335937-21.335937-27.042969-23.484375-44.140625-.703125-5.863281-.703125-11.789062 0-17.652344 2.148438-17.097656 10.507812-32.804687 23.484375-44.140624 3.066406-2.796876 6.410156-5.28125 9.972656-7.414063 1.765625-.972656 3.621094-2.03125 5.5625-3 1.941407-.972656 3.796875-1.765625 5.738281-2.472656 1.953126-.808594 3.960938-1.488281 6.003907-2.03125 2.054687-.625 4.148437-1.125 6.265625-1.5 2.128906-.429688 4.28125-.726563 6.445312-.882813 1.640625-.175781 3.292969-.265625 4.941406-.265625 1.117188-.117187 2.242188-.117187 3.355469 0 1.652344 0 3.300781.085938 4.945313.265625 2.164062.15625 4.316406.453125 6.441406.882813 2.121094.363281 4.214844.867187 6.269531 1.5 2.042969.542969 4.046875 1.222656 6.003907 2.03125 1.957031.714843 3.871093 1.542969 5.738281 2.472656 1.941406.96875 3.707031 1.941406 5.558593 3 3.566407 2.132813 6.90625 4.617187 9.976563 7.414063 12.976563 11.335937 21.332031 27.042968 23.480469 44.140624.355468 2.929688.53125 5.875.53125 8.828126zm0 0" fill="#ed634c"/><path d="m264.828125 211.863281c0-9.75-20.863281-17.65625-46.601563-17.65625-25.738281 0-46.601562 7.90625-46.601562 17.65625s20.863281 17.652344 46.601562 17.652344c25.738282 0 46.601563-7.902344 46.601563-17.652344zm0 0" fill="#ebeced"/><path d="m264.828125 105.929688c0-9.75-20.863281-17.652344-46.601563-17.652344-25.738281 0-46.601562 7.902344-46.601562 17.652344 0 9.753906 20.863281 17.65625 46.601562 17.65625 25.738282 0 46.601563-7.902344 46.601563-17.65625zm0 0" fill="#ebeced"/><path d="m288.839844 158.898438c0 2.949218-.175782 5.898437-.53125 8.824218h-17.125c-4.875 0-8.828125-3.949218-8.828125-8.824218 0-4.878907 3.953125-8.828126 8.828125-8.828126h17.125c.355468 2.929688.53125 5.875.53125 8.828126zm0 0" fill="#cd4f38"/><path d="m174.078125 158.898438c0 4.875-3.949219 8.824218-8.824219 8.824218h-17.128906c-.703125-5.863281-.703125-11.789062 0-17.652344h17.128906c4.875 0 8.824219 3.949219 8.824219 8.828126zm0 0" fill="#cd4f38"/><path d="m291.308594 441.378906c.015625 2.210938-.101563 4.421875-.351563 6.621094-.015625.710938-.074219 1.417969-.175781 2.117188-.175781 1.503906-.441406 2.914062-.707031 4.328124-.363281 2.117188-.867188 4.210938-1.5 6.265626-.542969 2.042968-1.222657 4.050781-2.03125 6.003906-.714844 1.957031-1.542969 3.871094-2.472657 5.738281-.96875 1.941406-1.941406 3.707031-3 5.5625-.792968 1.234375-1.675781 2.46875-2.558593 3.707031-1.40625 2.242188-3.035157 4.34375-4.855469 6.265625-11.335938 12.976563-27.042969 21.335938-44.140625 23.480469-5.863281.707031-11.789063.707031-17.652344 0-17.097656-2.144531-32.804687-10.503906-44.140625-23.480469-2.796875-3.070312-5.28125-6.410156-7.414062-9.972656-1.058594-1.855469-2.03125-3.621094-3-5.5625-.929688-1.867187-1.757813-3.78125-2.472656-5.738281-.808594-1.953125-1.488282-3.960938-2.03125-6.003906-.632813-2.054688-1.136719-4.148438-1.5-6.265626-.265626-1.414062-.53125-2.824218-.707032-4.328124-.074218-.496094-.101562-.996094-.085937-1.5-.082031-.195313-.109375-.40625-.089844-.617188-.25-2.199219-.367187-4.410156-.351563-6.621094v-.617187c-.019531-2.007813.101563-4.011719.351563-6.003907.015625-.707031.074219-1.414062.175781-2.117187.175782-1.5.441406-2.914063.707032-4.324219.363281-2.121094.867187-4.214844 1.5-6.269531.542968-2.042969 1.222656-4.046875 2.03125-6.003906.714843-1.957031 1.542968-3.871094 2.472656-5.738281.96875-1.941407 1.941406-3.707032 3-5.558594 2.132812-3.566406 4.617187-6.90625 7.414062-9.976563 11.335938-12.976562 27.042969-21.332031 44.140625-23.480469 5.863281-.707031 11.789063-.707031 17.652344 0 17.097656 2.148438 32.804687 10.503907 44.140625 23.480469 2.796875 3.070313 5.28125 6.410157 7.414062 9.976563 1.058594 1.851562 2.03125 3.617187 3 5.558594.929688 1.867187 1.757813 3.78125 2.472657 5.738281.808593 1.957031 1.488281 3.960937 2.03125 6.003906.632812 2.054687 1.136719 4.148437 1.5 6.269531.265625 1.410156.53125 2.824219.707031 4.324219.101562.703125.160156 1.410156.175781 2.117187.25 2.199219.367188 4.410157.351563 6.621094zm0 0" fill="#36b6d6"/><path d="m291.308594 441.378906c0-25.738281-7.902344-46.601562-17.652344-46.601562s-17.65625 20.863281-17.65625 46.601562c0 25.738282 7.90625 46.601563 17.65625 46.601563s17.652344-20.863281 17.652344-46.601563zm0 0" fill="#ebeced"/><path d="m185.378906 441.378906c0-25.738281-7.902344-46.601562-17.65625-46.601562-9.75 0-17.652344 20.863281-17.652344 46.601562 0 25.738282 7.902344 46.601563 17.652344 46.601563 9.753906 0 17.65625-20.863281 17.65625-46.601563zm0 0" fill="#ebeced"/><path d="m229.515625 371.289062v17.125c0 4.875-3.949219 8.828126-8.824219 8.828126-4.878906 0-8.828125-3.953126-8.828125-8.828126v-17.125c5.863281-.707031 11.789063-.707031 17.652344 0zm0 0" fill="#4f6f7f"/><path d="m229.515625 494.34375v17.125c-5.863281.707031-11.789063.707031-17.652344 0v-17.125c0-4.875 3.949219-8.828125 8.828125-8.828125 4.875 0 8.824219 3.953125 8.824219 8.828125zm0 0" fill="#4f6f7f"/><path d="m220.691406 300.136719c.011719 2.214843-.105468 4.425781-.355468 6.621093-.015626.710938-.074219 1.417969-.175782 2.121094-.175781 1.5-.441406 2.910156-.707031 4.324219-.363281 2.117187-.863281 4.210937-1.5 6.265625-.542969 2.046875-1.222656 4.050781-2.03125 6.003906-.714844 1.957032-1.539063 3.875-2.472656 5.738282-.96875 1.941406-1.941407 3.707031-3 5.5625-.792969 1.234374-1.675781 2.46875-2.558594 3.707031-1.40625 2.246093-3.035156 4.34375-4.855469 6.265625-11.335937 12.976562-27.042968 21.335937-44.136718 23.484375-5.867188.703125-11.792969.703125-17.65625 0-17.097657-2.148438-32.804688-10.507813-44.140626-23.484375-2.796874-3.066406-5.28125-6.410156-7.414062-9.972656-1.058594-1.855469-2.03125-3.621094-3-5.5625-.929688-1.863282-1.753906-3.78125-2.472656-5.738282-.808594-1.953125-1.484375-3.957031-2.03125-6.003906-.632813-2.054688-1.136719-4.148438-1.5-6.265625-.429688-2.128906-.722656-4.28125-.882813-6.445313-.46875-4.402343-.46875-8.839843 0-13.242187.160157-2.164063.453125-4.316406.882813-6.441406.363281-2.121094.867187-4.214844 1.5-6.269531.546875-2.042969 1.222656-4.046876 2.03125-6 .71875-1.960938 1.542968-3.875 2.472656-5.738282.96875-1.945312 1.941406-3.710937 3-5.5625 2.132812-3.566406 4.617188-6.90625 7.414062-9.976562 11.335938-12.976563 27.042969-21.332032 44.140626-23.480469 5.863281-.707031 11.789062-.707031 17.65625 0 17.09375 2.148437 32.800781 10.503906 44.136718 23.480469 2.796875 3.070312 5.28125 6.410156 7.414063 9.976562 1.058593 1.851563 2.03125 3.617188 3 5.5625.933593 1.863282 1.757812 3.777344 2.472656 5.738282.808594 1.953124 1.488281 3.957031 2.03125 6 .636719 2.054687 1.136719 4.148437 1.5 6.269531.265625 1.410156.53125 2.824219.707031 4.324219.101563.703124.160156 1.410156.175782 2.117187.25 2.199219.367187 4.410156.355468 6.621094zm0 0" fill="#5dc382"/><path d="m220.691406 300.136719c0-25.734375-7.90625-46.601563-17.65625-46.601563s-17.65625 20.867188-17.65625 46.601563c0 25.738281 7.90625 46.601562 17.65625 46.601562s17.65625-20.863281 17.65625-46.601562zm0 0" fill="#ebeced"/><path d="m114.757812 300.136719c0-25.734375-7.902343-46.601563-17.65625-46.601563-9.75 0-17.652343 20.867188-17.652343 46.601563 0 25.738281 7.902343 46.601562 17.652343 46.601562 9.753907 0 17.65625-20.863281 17.65625-46.601562zm0 0" fill="#ebeced"/><path d="m158.898438 230.046875v17.125c0 4.875-3.953126 8.828125-8.828126 8.828125s-8.828124-3.953125-8.828124-8.828125v-17.125c5.863281-.707031 11.789062-.707031 17.65625 0zm0 0" fill="#23b972"/><path d="m158.898438 353.101562v17.128907c-5.867188.703125-11.792969.703125-17.65625 0v-17.128907c0-4.875 3.953124-8.824218 8.828124-8.824218s8.828126 3.949218 8.828126 8.824218zm0 0" fill="#23b972"/></svg>