<?xml version="1.0" encoding="iso-8859-1"?>
<!-- Generator: Adobe Illustrator 19.0.0, SVG Export Plug-In . SVG Version: 6.00 Build 0)  -->
<svg version="1.1" id="Capa_1" xmlns="http://www.w3.org/2000/svg" xmlns:xlink="http://www.w3.org/1999/xlink" x="0px" y="0px"
	 viewBox="0 0 512 512" style="enable-background:new 0 0 512 512;" xml:space="preserve">
<path style="fill:#4398D1;" d="M79.448,379.586L79.448,379.586c-19.5,0-35.31-15.81-35.31-35.31V0l35.31,26.483L114.759,0
	l35.31,26.483L185.379,0l35.31,26.483L256,0l35.31,26.483L326.621,0v379.586H79.448z"/>
<g>
	<rect x="88.276" y="229.517" style="fill:#EBEBEB;" width="26.483" height="17.655"/>
	<rect x="88.276" y="282.483" style="fill:#EBEBEB;" width="26.483" height="17.655"/>
	<rect x="88.276" y="123.586" style="fill:#EBEBEB;" width="61.793" height="17.655"/>
	<rect x="88.276" y="176.552" style="fill:#EBEBEB;" width="26.483" height="17.655"/>
	<rect x="88.276" y="70.621" style="fill:#EBEBEB;" width="105.931" height="17.655"/>
	<rect x="247.172" y="70.621" style="fill:#EBEBEB;" width="35.31" height="17.655"/>
</g>
<path style="fill:#126099;" d="M150.069,132.414c-19.5,0-35.31,15.81-35.31,35.31v176.552c0,19.5-15.81,35.31-35.31,35.31h388.414
	V167.724c0-19.5-15.81-35.31-35.31-35.31H150.069"/>
<path style="fill:#87CED9;" d="M432.552,132.414H150.069c19.5,0,35.31,15.81,35.31,35.31V512l35.31-26.483L256,512l35.31-26.483
	L326.621,512l35.31-26.483L397.241,512l35.31-26.483L467.862,512V167.724C467.862,148.224,452.052,132.414,432.552,132.414z"/>
<path style="fill:#6CBBC7;" d="M185.379,460.8V512l35.31-26.483L256,512l35.31-26.483L326.621,512l35.31-26.483L397.241,512
	l35.31-26.483L467.862,512V173.903C393.446,310.113,279.393,402.891,185.379,460.8z"/>
<g>
	<rect x="229.517" y="291.31" style="fill:#EBEBEB;" width="105.931" height="17.655"/>
	<rect x="388.414" y="291.31" style="fill:#EBEBEB;" width="35.31" height="17.655"/>
	<rect x="229.517" y="344.276" style="fill:#EBEBEB;" width="70.621" height="17.655"/>
	<rect x="388.414" y="344.276" style="fill:#EBEBEB;" width="35.31" height="17.655"/>
	<rect x="229.517" y="397.241" style="fill:#EBEBEB;" width="105.931" height="17.655"/>
	<rect x="388.414" y="397.241" style="fill:#EBEBEB;" width="35.31" height="17.655"/>
	<rect x="229.517" y="185.379" style="fill:#EBEBEB;" width="105.931" height="17.655"/>
	<rect x="388.414" y="185.379" style="fill:#EBEBEB;" width="35.31" height="17.655"/>
	<rect x="229.517" y="238.345" style="fill:#EBEBEB;" width="70.621" height="17.655"/>
	<rect x="388.414" y="238.345" style="fill:#EBEBEB;" width="35.31" height="17.655"/>
</g>
<g>
</g>
<g>
</g>
<g>
</g>
<g>
</g>
<g>
</g>
<g>
</g>
<g>
</g>
<g>
</g>
<g>
</g>
<g>
</g>
<g>
</g>
<g>
</g>
<g>
</g>
<g>
</g>
<g>
</g>
</svg>
