<svg id="Capa_1" enable-background="new 0 0 512 512" height="512" viewBox="0 0 512 512" width="512" xmlns="http://www.w3.org/2000/svg"><path d="m252.366 90.254c-2.753-5.506-8.381-8.985-14.538-8.985h-38.716l-13.445 13.731 23.333 29.667 55.127-10.889z" fill="#ff8086"/><path d="m199.111 89.397v-8.127h-6.208c-6.157 0-11.785 3.479-14.539 8.985l-19.888 39.777 59.857 11.968 53.921-11.968-8.127-16.254h-40.635c-13.465 0-24.381-10.916-24.381-24.381z" fill="#e5646e"/><path d="m451.048 390.095h-24.381v-16.254h24.381c4.484 0 8.127-3.647 8.127-8.127v-121.904h16.254v121.905c0 13.444-10.937 24.38-24.381 24.38z" fill="#b6b1b7"/><path d="m418.54 349.46-24.381 20.873v28.333l24.381 15.81c8.977 0 16.254-7.277 16.254-16.254v-32.508c0-8.977-7.278-16.254-16.254-16.254z" fill="#dad8db"/><path d="m394.159 349.46h24.381v65.016h-24.381z" fill="#c8c5c9"/><path d="m386.032 495.746h-331.032c-8.977 0-16.254-7.277-16.254-16.254v-292.571l5.953-39.814c10.325-10.537 24.716-17.074 40.634-17.074h260.063c31.419 0 56.889 25.47 56.889 56.889v292.571c.001 8.976-7.276 16.253-16.253 16.253z" fill="#ffe09f"/><path d="m337.27 333.206h-243.81c-17.954 0-32.508-14.554-32.508-32.508v-113.777c0-17.954 14.554-32.508 32.508-32.508h243.81c17.954 0 32.508 14.554 32.508 32.508v113.778c0 17.953-14.555 32.507-32.508 32.507z" fill="#ecbd83"/><path d="m337.27 309.921h-41.968c-8.977 0-16.254-7.277-16.254-16.254v-106.746l9.46-16.254h48.762c8.977 0 16.254 7.277 16.254 16.254v113.778z" fill="#fff"/><path d="m288.508 284.444v-113.777c-8.977 0-16.254 7.277-16.254 16.254v113.778c0 8.977 7.277 16.254 16.254 16.254h48.762c8.977 0 16.254-7.277 16.254-16.254h-48.762c-8.977-.001-16.254-7.278-16.254-16.255z" fill="#eceaec"/><path d="m239.746 309.921h-41.968c-8.977 0-16.254-7.277-16.254-16.254v-106.746l9.46-16.254h48.762c8.977 0 16.254 7.277 16.254 16.254v113.778z" fill="#fff"/><path d="m190.984 284.444v-113.777c-8.977 0-16.254 7.277-16.254 16.254v113.778c0 8.977 7.277 16.254 16.254 16.254h48.762c8.977 0 16.254-7.277 16.254-16.254h-48.762c-8.977-.001-16.254-7.278-16.254-16.255z" fill="#eceaec"/><path d="m142.222 309.921h-41.968c-8.977 0-16.254-7.277-16.254-16.254v-106.746l9.46-16.254h48.762c8.977 0 16.254 7.277 16.254 16.254v113.778z" fill="#fff"/><g fill="#ff8086"><path d="m117.849 284.444c-.651 0-1.317-.075-1.976-.242-4.357-1.087-7.008-5.5-5.913-9.857l13.722-54.917h-22.095c-4.492 0-8.127-3.639-8.127-8.127s3.635-8.127 8.127-8.127h32.508c2.5 0 4.865 1.155 6.405 3.127s2.087 4.544 1.476 6.972l-16.254 65.016c-.92 3.691-4.23 6.155-7.873 6.155z"/><path d="m215.373 284.444c-.651 0-1.317-.075-1.976-.242-4.357-1.087-7.008-5.5-5.913-9.857l13.722-54.917h-22.095c-4.492 0-8.127-3.639-8.127-8.127s3.635-8.127 8.127-8.127h32.508c2.5 0 4.865 1.155 6.405 3.127s2.087 4.544 1.476 6.972l-16.254 65.016c-.921 3.691-4.23 6.155-7.873 6.155z"/><path d="m312.897 284.444c-.651 0-1.317-.075-1.976-.242-4.357-1.087-7.008-5.5-5.913-9.857l13.722-54.917h-22.095c-4.492 0-8.127-3.639-8.127-8.127s3.635-8.127 8.127-8.127h32.508c2.5 0 4.865 1.155 6.405 3.127s2.087 4.544 1.476 6.972l-16.254 65.017c-.921 3.69-4.23 6.154-7.873 6.154z"/><path d="m215.365 56.889c-4.492 0-8.127-3.639-8.127-8.127v-40.635c0-4.488 3.635-8.127 8.127-8.127s8.127 3.639 8.127 8.127v40.635c0 4.488-3.635 8.127-8.127 8.127z"/></g><path d="m174.738 56.889c-2.984 0-5.849-1.643-7.278-4.492l-8.127-16.254c-2.008-4.016-.381-8.897 3.635-10.905 4.016-2 8.897-.385 10.905 3.635l8.127 16.254c2.008 4.016.381 8.897-3.635 10.905-1.167.583-2.405.857-3.627.857z" fill="#ff9a9f"/><path d="m255.992 56.889c-1.222 0-2.46-.274-3.627-.857-4.016-2.008-5.643-6.889-3.635-10.905l8.127-16.254c2.016-4.02 6.889-5.635 10.905-3.635 4.016 2.008 5.643 6.889 3.635 10.905l-8.127 16.254c-1.429 2.849-4.294 4.492-7.278 4.492z" fill="#ff9a9f"/><path d="m288.508 365.714h-146.286c-8.977 0-16.254 7.277-16.254 16.254l16.254 8.032h146.286l16.254-8.032c0-8.977-7.277-16.254-16.254-16.254z" fill="#b6b1b7"/><circle cx="467.302" cy="235.683" fill="#ff8086" r="16.254"/><path d="m44.698 487.619v-340.513c-10.044 10.259-16.254 24.324-16.254 39.815v300.698z" fill="#f6d190"/><path d="m44.698 479.492-10.286 9.754c0 8.977 7.277 16.254 16.254 16.254h335.365c8.977 0 16.254-9.754 16.254-9.754v-16.254z" fill="#dad8db"/><path d="m44.698 479.492h-16.254v16.254c0 8.977 7.277 16.254 16.254 16.254h341.333c8.977 0 16.254-7.277 16.254-16.254h-341.333c-8.976 0-16.254-7.277-16.254-16.254z" fill="#c8c5c9"/><path d="m93.46 284.444v-113.777c-8.977 0-16.254 7.277-16.254 16.254v113.778c0 8.977 7.277 16.254 16.254 16.254h48.762c8.977 0 16.254-7.277 16.254-16.254h-48.762c-8.976-.001-16.254-7.278-16.254-16.255z" fill="#eceaec"/><path d="m288.508 398.222h-146.286c-8.977 0-16.254-7.277-16.254-16.254h178.794c0 8.977-7.277 16.254-16.254 16.254z" fill="#c8c5c9"/></svg>