<?xml version="1.0" encoding="iso-8859-1"?>
<!-- Generator: Adobe Illustrator 19.0.0, SVG Export Plug-In . SVG Version: 6.00 Build 0)  -->
<svg version="1.1" id="Capa_1" xmlns="http://www.w3.org/2000/svg" xmlns:xlink="http://www.w3.org/1999/xlink" x="0px" y="0px"
	 viewBox="0 0 490.671 490.671" style="enable-background:new 0 0 490.671 490.671;" xml:space="preserve">
<path style="fill:#607D8B;" d="M208.344,395.904c-2.977-2.967-4.267-7.23-3.435-11.349l18.88-94.421
	c1.178-5.772-2.546-11.406-8.318-12.585c-0.703-0.143-1.418-0.216-2.136-0.216h-128c-5.891-0.011-10.675,4.757-10.686,10.648
	c-0.005,2.84,1.123,5.565,3.134,7.571l39.552,39.531v79.424c0,17.83,8.91,34.481,23.744,44.373l44.992,29.995
	c4.229,2.824,9.863,2.271,13.461-1.323l8.832-8.832c10.041-9.979,15.672-23.561,15.637-37.717v-7.339
	C224.031,419.492,218.393,405.897,208.344,395.904z"/>
<ellipse style="fill:#B0BEC5;" cx="394.669" cy="213.333" rx="74.667" ry="202.667"/>
<g>
	<path style="fill:#F44336;" d="M384.002,149.333c-5.891,0-10.667,4.776-10.667,10.667v106.667c0,5.891,4.776,10.667,10.667,10.667
		c32.245-3.241,55.96-31.699,53.333-64C439.962,181.033,416.247,152.574,384.002,149.333z"/>
	<path style="fill:#F44336;" d="M213.336,277.333c-39.36,0-53.333-34.475-53.333-64s13.973-64,53.333-64
		c5.891,0,10.667-4.776,10.667-10.667S219.227,128,213.336,128H96.002c-47.128,0-85.333,38.205-85.333,85.333
		s38.205,85.333,85.333,85.333h117.333c5.891,0,10.667-4.776,10.667-10.667C224.002,282.109,219.227,277.333,213.336,277.333z"/>
</g>
<g>
	<path style="fill:#F5F5F5;" d="M330.669,213.333c0-71.381,14.037-136.96,36.629-171.179c3.253-4.912,1.908-11.53-3.004-14.783
		c-3.673-2.432-8.463-2.357-12.057,0.191L209.837,128c-42.091,1.877-71.168,36.437-71.168,85.333s29.077,83.456,71.168,85.333
		l142.4,100.523c4.806,3.406,11.464,2.272,14.87-2.535c2.547-3.594,2.623-8.384,0.191-12.057
		C344.706,350.293,330.669,284.715,330.669,213.333z"/>
	<path style="fill:#F5F5F5;" d="M394.669,426.667c-55.467,0-85.333-109.909-85.333-213.333S339.202,0,394.669,0
		s85.333,109.909,85.333,213.333S450.136,426.667,394.669,426.667z M394.669,21.333c-30.272,0-64,78.933-64,192s33.728,192,64,192
		c30.272,0,64-78.933,64-192S424.941,21.333,394.669,21.333z"/>
</g>
<g>
</g>
<g>
</g>
<g>
</g>
<g>
</g>
<g>
</g>
<g>
</g>
<g>
</g>
<g>
</g>
<g>
</g>
<g>
</g>
<g>
</g>
<g>
</g>
<g>
</g>
<g>
</g>
<g>
</g>
</svg>
