<?xml version="1.0" encoding="iso-8859-1"?>
<!-- Generator: Adobe Illustrator 19.0.0, SVG Export Plug-In . SVG Version: 6.00 Build 0)  -->
<svg version="1.1" id="Capa_1" xmlns="http://www.w3.org/2000/svg" xmlns:xlink="http://www.w3.org/1999/xlink" x="0px" y="0px"
	 viewBox="0 0 511.522 511.522" style="enable-background:new 0 0 511.522 511.522;" xml:space="preserve">
<path style="fill:#4CDBC4;" d="M480.348,168.994L438.865,17.111c-3.371-12.373-16.149-19.659-28.523-16.288L44.028,100.866
	c-12.373,3.371-19.669,16.139-16.288,28.512l10.816,39.616H480.348z"/>
<path style="fill:#F2F2F2;" d="M76.22,168.994h343.477c5.547-7.541,13.547-13.344,23.275-16l-20.96-76.811
	c-22.955,6.261-46.624-7.253-52.896-30.197L95.889,120.61C101.116,139.757,92.529,159.372,76.22,168.994"/>
<g>
	<path style="fill:#4CDBC4;" d="M361.574,133.954c2.293,8.459-2.688,17.173-11.125,19.488c-8.459,2.304-17.184-2.677-19.499-11.125
		c-2.293-8.459,2.688-17.184,11.125-19.488C350.534,120.524,359.26,125.506,361.574,133.954"/>
	<path style="fill:#4CDBC4;" d="M306.534,168.994c-0.373-6.261-1.355-12.683-3.125-19.157
		c-10.101-37.003-40.267-61.013-67.371-53.611c-25.227,6.891-38.88,38.571-32.48,72.768H306.534L306.534,168.994z"/>
</g>
<path style="fill:#F2F2F2;" d="M236.326,163.554c3.851,2.784,9.109,4.245,15.755,4.288l0.309,1.152h7.317l-0.267-0.992
	c2.08,0.032,3.733,0.427,5.163,0.992h16c-1.44-4.576-3.808-8.075-7.189-10.411c-3.648-2.539-9.461-3.744-17.579-3.744l-5.024-18.411
	c3.435,0.491,5.984,2.496,7.733,5.995l11.499-4.811c-2.101-4.48-5.067-7.744-8.747-9.739c-3.755-2.016-8.192-2.624-13.312-1.856
	l-1.291-4.661l-6.816,1.856l1.269,4.661c-5.291,2.037-9.024,5.216-11.317,9.579c-2.336,4.416-2.752,9.184-1.355,14.304
	C229.873,156.876,232.465,160.781,236.326,163.554 M240.412,142.562c0.683-1.803,1.856-3.307,3.563-4.405l4.437,16.256
	c-2.293-0.299-4.128-1.035-5.504-2.176c-1.419-1.184-2.315-2.56-2.795-4.245C239.633,146.167,239.718,144.365,240.412,142.562"/>
<g>
	<path style="fill:#40596B;" d="M504.412,212.098V175.18c0-11.872-9.621-21.504-21.504-21.504H21.617
		c-11.872,0-21.504,9.632-21.504,21.504v36.917H504.412z"/>
	<path style="fill:#40596B;" d="M0.113,453.09v36.917c0,11.872,9.621,21.515,21.504,21.515h461.291
		c11.872,0,21.504-9.632,21.504-21.515V453.09H0.113z"/>
	<rect x="0.828" y="212.098" style="fill:#40596B;" width="503.573" height="241.003"/>
</g>
<path style="fill:#CDD6E0;" d="M511.409,279.191v106.816h-101.92c-0.565,0-1.205,0-1.771-0.053
	c-25.525-0.832-46.496-19.573-50.752-44.064c-0.565-3.019-0.832-6.123-0.832-9.291c0-14.741,5.963-28.085,15.627-37.739
	c9.643-9.696,22.976-15.669,37.728-15.669L511.409,279.191L511.409,279.191z"/>
<path style="fill:#40596B;" d="M445.34,332.599c0,18.379-14.912,33.291-33.291,33.291s-33.291-14.912-33.291-33.291
	c0-18.379,14.912-33.28,33.291-33.28S445.34,314.221,445.34,332.599"/>
<path style="fill:#FFFFFF;" d="M407.281,329.303c-6.165,6.176-13.877,8.501-17.184,5.195c-3.307-3.307-0.981-11.008,5.205-17.184
	c6.165-6.187,13.877-8.512,17.184-5.195C415.782,315.426,413.468,323.127,407.281,329.303"/>
<g>
</g>
<g>
</g>
<g>
</g>
<g>
</g>
<g>
</g>
<g>
</g>
<g>
</g>
<g>
</g>
<g>
</g>
<g>
</g>
<g>
</g>
<g>
</g>
<g>
</g>
<g>
</g>
<g>
</g>
</svg>
