<svg id="Capa_1" enable-background="new 0 0 512 512" height="512" viewBox="0 0 512 512" width="512" xmlns="http://www.w3.org/2000/svg"><path d="m406.591 512h-331.299c.247-9.467.618-18.935 1.102-28.402 2.431-47.482 40.425-85.269 87.927-87.515 51.077-2.411 102.164-2.411 153.251 0 47.492 2.246 85.485 40.033 87.917 87.515.484 9.467.855 18.935 1.102 28.402z" fill="#89aada"/><path d="m240.947 394.27c-15.793 0-31.586.608-47.379 1.813-29.381 2.246-52.869 40.033-54.373 87.515-.299 9.467-.536 18.935-.68 28.402h-63.223c.247-9.467.618-18.935 1.102-28.402 2.431-47.482 40.425-85.269 87.927-87.515 25.539-1.205 51.077-1.813 76.626-1.813z" fill="#7398d3"/><path d="m291.024 406.282c.021.258.021.515.021.773 0 21.346-22.427 38.653-50.098 38.653s-50.109-17.307-50.109-38.653c0-.258 0-.515.021-.773" fill="#f1b986"/><path d="m406.593 288.367h.232c19.92 0 36.061-16.155 36.061-36.061 0-19.92-16.141-36.075-36.061-36.075-.259 0-.518 0-.778.014h-330.212c-.259-.014-.518-.014-.778-.014-19.92 0-36.061 16.155-36.061 36.075 0 19.907 16.141 36.061 36.061 36.061h.232" fill="#f1b986"/><path d="m398.298 122.062c-104.904-10.17-209.809-10.17-314.713 0-8.141 65.226-10.538 130.451-7.193 195.677 2.435 47.481 40.429 85.274 87.92 87.516 51.087 2.412 102.174 2.412 153.26 0 47.49-2.242 85.484-40.035 87.92-87.516 3.345-65.225.947-130.451-7.194-195.677z" fill="#f1d0a5"/><path d="m83.591 122.052c52.443-5.086 104.902-7.622 157.361-7.622-26.558 0-53.116 2.567-79.674 7.7-4.132 65.855-5.337 131.71-3.646 197.55 1.111 43.335 16.949 78.672 37.732 86.732-10.345-.282-20.705-.673-31.05-1.158-47.482-2.238-85.48-40.033-87.922-87.515-3.333-65.229-.939-130.458 7.199-195.687z" fill="#f1b986"/><path d="m240.941 329.405c-17.313 0-33.297-10.108-40.722-25.753-1.83-3.855-.188-8.463 3.667-10.293 3.855-1.829 8.463-.188 10.293 3.667 4.88 10.282 15.385 16.926 26.762 16.926s21.882-6.644 26.762-16.926c1.829-3.855 6.438-5.498 10.293-3.667 3.855 1.83 5.497 6.438 3.667 10.293-7.425 15.645-23.409 25.753-40.722 25.753z" fill="#eaac9d"/><path d="m164.157 217.378c-8.23 0-14.926 9.986-14.926 22.261s6.695 22.261 14.926 22.261c8.23 0 14.927-9.986 14.927-22.261-.001-12.275-6.697-22.261-14.927-22.261z" fill="#4d5961"/><path d="m317.727 217.378c-8.23 0-14.926 9.986-14.926 22.261s6.695 22.261 14.926 22.261c8.23 0 14.927-9.986 14.927-22.261-.001-12.275-6.697-22.261-14.927-22.261z" fill="#4d5961"/><path d="m386.98 381.848c-21.209 0-39.589-11.121-40.623-11.758-3.633-2.238-4.764-6.998-2.526-10.631 2.235-3.628 6.985-4.762 10.617-2.534.272.166 27.453 16.481 48.705 5.891 15.447-7.698 24.888-27.939 28.062-60.161.419-4.246 4.195-7.35 8.447-6.932 4.247.418 7.35 4.2 6.932 8.447-3.735 37.921-16.062 62.321-36.636 72.521-7.583 3.758-15.46 5.157-22.978 5.157z" fill="#909ba5"/><path d="m410.181 315.447h.406c34.875 0 63.134-28.282 63.134-63.134 0-34.875-28.258-63.157-63.134-63.157-.454 0-.908 0-1.362.024" fill="#f4dd45"/><path d="m473.72 252.313c0 34.851-28.258 63.13-63.14 63.13h-.402v-31.513h.402c29.443 0 54.157-20.14 61.152-47.379 1.298 5.038 1.988 10.323 1.988 15.762z" fill="#ecc32e"/><path d="m410.179 323.173c-4.245 0-7.698-3.427-7.725-7.678l-.796-126.059c-.027-4.267 3.411-7.748 7.678-7.775h.05c4.245 0 7.698 3.427 7.725 7.678l.796 126.059c.027 4.267-3.41 7.748-7.678 7.775-.016 0-.034 0-.05 0z" fill="#909ba5"/><circle cx="335.505" cy="352.611" fill="#5e6b75" r="25.694"/><path d="m343.56 377.016c-2.534.834-5.244 1.288-8.056 1.288-14.186 0-25.693-11.507-25.693-25.693s11.507-25.693 25.693-25.693c2.812 0 5.522.453 8.056 1.288-10.25 3.379-17.647 13.032-17.647 24.405s7.397 21.026 17.647 24.405z" fill="#4d5961"/><path d="m405.162 187.018c-33.491 33.507-99.816-33.491-99.816-33.491 1.878 12.129-1.534 23.944-14.68 33.334-9.312 6.651-19.844 9.578-30.752 10.016-43.71 1.753-93.258-36.684-93.258-36.684-8.827 24.273-34.868 23.788-56.449 18.467-19.86-4.898-36.637-18.044-46.214-36.12-16.464-31.065-38.781-83.617-16.026-106.372 33.334-33.334 74.682 0 74.682 0s40.158-15.071 91.411-25.744c.016 0 .047-.016.063-.016 61.332-12.77 138.534-19.281 181.9 13.772 44.759 34.117 42.646 129.347 9.139 162.838z" fill="#5e6b75"/><path d="m259.915 196.877c-43.71 1.753-93.258-36.684-93.258-36.684-8.827 24.273-34.868 23.788-56.449 18.467-19.86-4.898-36.637-18.044-46.214-36.12-16.465-31.065-38.782-83.617-16.027-106.372 33.334-33.334 74.682 0 74.682 0s40.158-15.071 91.411-25.744c-66.262 17.402-11.941 165.701 45.855 186.453z" fill="#4d5961"/></svg>